<?xml version="1.0" encoding="utf-8"?>
<!-- Generator: Adobe Illustrator 22.0.1, SVG Export Plug-In . SVG Version: 6.00 Build 0)  -->
<svg version="1.1" id="Layer_1" xmlns="http://www.w3.org/2000/svg" xmlns:xlink="http://www.w3.org/1999/xlink" x="0px" y="0px"
	 viewBox="0 0 1062.7 925.7" style="enable-background:new 0 0 1062.7 925.7;" xml:space="preserve">
<style type="text/css">
	.st0{fill:#43A5FF;}
</style>
<title>Asset 1</title>
<g id="Layer_2_1_">
	<g id="Layer_3">
		<path class="st0" d="M513.8,830.1c0.8-3.4,18-51.6,19.5-55.7c27-71.3,54.1-142.6,81.3-213.8c30.3-79.6,60.7-159.2,91.1-238.8
			c0.7-2.2,2-4.2,3.7-5.8l0,0c0.1,1.8,0.3,3.7,0.3,5.5c0,27.5,0.2,54.9-0.1,82.4c0,5.2,1.6,6.5,6.6,6.5c22.1-0.1,44.2,0.7,66.3-0.1
			c16.6-0.5,32.7-5.7,46.3-15.2c27.2-18.8,28.3-60,16.6-78.6c-8.7-13.8-22.2-22-37.8-25.2c-14.7-3-29.5-4.8-44.5-5.5
			c-21.6-0.9-43.2-0.1-64.8-0.4c-4.9-0.1-6.9,1.7-8.6,6.1c-35,92.1-70.1,184.2-105.3,276.3C560.2,631.4,536,695,511.7,758.5
			c-4,10.5-1.6,9.2-13.6,9.2c-46.7,0-93.4,0-140.1,0c-2.5,0-5-0.2-8.1-0.4l0,0c2-9.3,4.4-17.9,5.7-26.7c2.7-18.4,6.8-36.9,7-55.4
			c1.1-87.7,1.1-175.4,1.5-263c0-2.9,0-5.8,1.4-9.1l0,0l1.2,4.1c12.3,43.2,25,86.3,36.7,129.7c4.1,15.2,5.5,31.2,8.2,46.9
			c0.2,1,0.5,2,0.9,4c1.4-10.7,1.6-20.4,4-29.6c5.3-20.5,11.5-40.7,17.5-61c27.6-92.3,55.2-184.5,82.8-276.8c1.3-4.7,2-9.6,2-14.6
			c0.2-22.5,0.1-45,0.1-67.6v-7.2h6.5c83.5,0,167-0.3,250.5,0.1c49.7,0.2,99,4.5,147,18.7c21.5,6.3,42,15,60.7,27.4
			c32.1,21.2,53.1,50,60.5,87.9c8.4,43,5.6,85-15,124.4c-18.5,35.3-46.6,59.7-85.4,70.8c-1.4,0.4-3.2,0.6-4,1.6
			c-0.6,0.7-0.3,2.7,0.2,3.7c0.4,0.7,1.9,0.8,3,1.1c30.3,9.7,58.3,23.3,81,46.4c16.2,16.6,26.1,36.7,31.5,58.8
			c12,49.2,10.2,97.7-11.8,144.1c-15.5,32.8-40.3,57.2-70.7,76.3c-32.8,20.5-68.8,32-106.7,38c-25.3,3.8-50.9,5.7-76.5,5.5
			l-263.8-0.5C513.8,845.4,511.6,838.8,513.8,830.1z M709.8,624.2v60.9c0,12.1,0,12.1,12.2,12.6c0.5,0,1.1,0.1,1.7,0.1
			c26.7,0.5,53.4,2.3,79.9-1.8c26.2-4.2,47.6-15.9,57-42.6c5.7-16.4,6.5-34,2.2-50.8c-2.4-9.6-6.6-18.3-13.9-25.7
			c-18.3-18.3-41.3-24.3-65.9-25.2c-22.5-0.9-45-0.2-67.5-0.4c-4.7,0-5.8,1.6-5.8,6C710,579.6,709.9,601.9,709.8,624.2L709.8,624.2z
			"/>
		<path class="st0" d="M113.2,221.4h44.3V0h191.1c0.3,4.8,0.8,9.5,0.8,14.2c0,214.4,0.4,428.8-0.3,643.2
			c-0.2,50.4-9.2,99.7-31,145.8c-29.7,62.8-79.4,100.3-146.8,115.1c-26.5,5.8-53.5,8.3-80.6,7.2c-23.7-1-47.3-3.8-70.9-6.3
			c-6.6-0.7-13.1-3.2-19.9-4.8V766.8c13.5,2.6,26.7,5.5,40,7.7c17.6,2.9,35.3,3.5,53,0.4c31.2-5.6,49.3-25,57.3-55
			c5.5-20.9,7.4-42.2,7.5-63.6c0.2-103.5,0.2-206.9,0-310.3c0-4.7-0.9-9.4-2.6-13.8c-13.1-34.9-26.5-69.7-39.8-104.5
			C114.6,225.8,114.1,223.9,113.2,221.4z"/>
	</g>
</g>
</svg>
